<?xml version="1.0" standalone="no"?>
<!DOCTYPE svg PUBLIC "-//W3C//DTD SVG 20010904//EN"
 "http://www.w3.org/TR/2001/REC-SVG-20010904/DTD/svg10.dtd">
<svg version="1.0" xmlns="http://www.w3.org/2000/svg"
 width="700.000000pt" height="700.000000pt" viewBox="0 0 700.000000 700.000000"
 preserveAspectRatio="xMidYMid meet">
<metadata>
Created by potrace 1.11, written by Peter Selinger 2001-2013
</metadata>
<g transform="translate(0.000000,700.000000) scale(0.100000,-0.100000)"
fill="#000000" stroke="none">
<path d="M233 6501 c-53 -18 -110 -56 -151 -101 -21 -23 -42 -63 -71 -133 -8
-20 -11 -566 -11 -2065 1 -1931 2 -2040 19 -2089 25 -72 63 -127 119 -168 98
-73 20 -69 1357 -71 660 -1 1202 -2 1205 -3 7 -2 5 -749 -2 -756 -4 -4 -226
-7 -495 -8 -479 -2 -489 -2 -535 -24 -70 -32 -116 -70 -146 -122 -41 -69 -50
-104 -47 -180 3 -121 67 -216 184 -273 l46 -23 1795 0 1795 0 45 22 c205 98
252 353 93 511 -18 18 -59 45 -91 60 l-57 27 -488 1 c-268 1 -491 4 -494 8 -7
7 -10 755 -3 757 3 1 547 2 1210 3 970 2 1213 5 1245 15 114 38 196 121 229
230 14 49 16 254 16 2067 0 1456 -3 2027 -11 2066 -27 126 -111 215 -238 252
-49 14 -371 16 -3260 15 -3041 0 -3209 -1 -3258 -18z m6257 -2304 l0 -1813
-2990 1 -2990 0 0 1812 0 1813 2990 0 2990 0 0 -1813z"/>
<path d="M3804 5500 c-43 -10 -95 -43 -120 -77 -11 -15 -37 -77 -56 -138 -20
-60 -66 -202 -103 -315 -90 -280 -137 -425 -248 -770 -162 -501 -278 -861
-309 -958 -38 -117 -35 -178 11 -245 73 -107 234 -116 324 -19 31 32 50 84
182 497 42 132 85 265 95 295 10 30 55 170 100 310 45 140 108 336 140 435
195 600 234 725 238 768 8 84 -47 178 -122 206 -34 14 -99 19 -132 11z"/>
<path d="M2725 4909 c-22 -4 -89 -31 -150 -59 -60 -29 -139 -65 -175 -82 -36
-16 -107 -50 -158 -74 -51 -24 -95 -44 -97 -44 -2 0 -64 -28 -137 -63 -73 -35
-200 -95 -282 -132 -190 -88 -231 -128 -240 -232 -5 -59 17 -128 52 -167 28
-29 164 -98 487 -246 33 -15 94 -43 135 -63 287 -134 500 -231 538 -247 37
-15 117 -8 154 12 103 58 141 171 93 276 -30 64 -64 89 -221 161 -71 32 -174
80 -229 106 -116 55 -226 106 -273 126 -17 8 -31 17 -29 22 1 4 52 30 112 58
61 27 139 64 175 81 36 16 88 41 115 53 298 139 315 150 350 217 32 59 20 174
-23 223 -28 34 -77 64 -112 70 -18 3 -36 7 -39 9 -3 1 -24 -1 -46 -5z"/>
<path d="M4210 4909 c-55 -10 -83 -24 -117 -59 -58 -59 -76 -167 -40 -236 37
-68 76 -93 337 -212 25 -11 92 -42 150 -69 58 -27 142 -67 188 -88 45 -21 82
-41 82 -44 0 -3 -15 -12 -32 -20 -35 -15 -155 -71 -273 -126 -38 -18 -135 -63
-215 -100 -166 -77 -202 -101 -230 -155 -76 -148 28 -314 191 -306 39 2 79 15
144 45 50 24 117 56 150 71 33 15 94 43 135 63 113 53 378 176 440 204 196 90
319 154 342 179 53 58 69 175 33 244 -34 65 -55 79 -360 220 -38 18 -104 48
-145 67 -41 20 -131 61 -200 93 -69 32 -159 74 -200 93 -310 145 -319 148
-380 136z"/>
</g>
</svg>
